<?xml version="1.0" standalone="no"?>
<!DOCTYPE svg PUBLIC "-//W3C//DTD SVG 1.1//EN" "http://www.w3.org/Graphics/SVG/1.1/DTD/svg11.dtd" >
<svg xmlns="http://www.w3.org/2000/svg" xmlns:xlink="http://www.w3.org/1999/xlink" version="1.1">
<metadata></metadata>
<defs>
<font id="samsungone200" horiz-adv-x="1408" >
<font-face units-per-em="2048" ascent="1588" descent="-460" />
<missing-glyph horiz-adv-x="514" />
<glyph unicode="&#xfb01;" horiz-adv-x="1120" d="M50 992v60h178v194q0 142 80 222t222 80q44 0 74 -8v-62q-40 6 -74 6q-114 0 -173 -61t-59 -179v-192h268v-60h-268v-992h-70v992h-178zM816 1350q0 32 17 50t45 18t45 -17t17 -49t-17 -50t-45 -18t-45 17t-17 49zM842 0v1052h70v-1052h-70z" />
<glyph unicode="&#xfb02;" horiz-adv-x="1174" d="M50 992v60h178v194q0 142 80 222t222 80q44 0 74 -8v-62q-40 6 -74 6q-114 0 -173 -61t-59 -179v-192h268v-60h-268v-992h-70v992h-178zM834 152v1388h70v-1382q0 -54 25 -80t79 -26q32 0 72 8l10 -58q-48 -12 -94 -12q-80 0 -121 41t-41 121z" />
<glyph horiz-adv-x="0" />
<glyph horiz-adv-x="0" />
<glyph unicode="&#xd;" horiz-adv-x="0" />
<glyph horiz-adv-x="0" />
<glyph horiz-adv-x="520" />
<glyph unicode="&#x9;" horiz-adv-x="1024" />
<glyph horiz-adv-x="514" />
<glyph unicode=" "  horiz-adv-x="514" />
<glyph unicode="&#x09;" horiz-adv-x="514" />
<glyph unicode="&#xa0;" horiz-adv-x="514" />
<glyph unicode="!" horiz-adv-x="644" d="M252 46q0 34 18 53t52 19t52 -18t18 -52t-19 -54t-51 -20q-34 0 -52 19t-18 53zM282 1448h76l-8 -1118h-60z" />
<glyph unicode="&#x22;" horiz-adv-x="664" d="M152 1448h68l-6 -422h-56zM444 1448h68l-6 -422h-56z" />
<glyph unicode="#" horiz-adv-x="1270" d="M98 442v64h272l68 436h-258v64h268l70 442h68l-70 -442h328l70 442h68l-70 -442h260v-64h-270l-68 -436h252v-64h-262l-70 -442h-68l70 442h-328l-70 -442h-68l70 442h-262zM438 506h328l68 436h-328z" />
<glyph unicode="$" horiz-adv-x="1072" d="M110 116l28 58q168 -94 358 -96v626l-60 16q-160 44 -236 129t-76 221q0 164 98 260t274 106v182h68v-182q176 -6 334 -78l-28 -62q-164 66 -306 74v-610l62 -18q158 -44 235 -129t77 -225q0 -164 -98 -261t-276 -113v-184h-68v182q-208 2 -386 104zM194 1080 q0 -114 61 -182t207 -110l34 -10v592q-150 -8 -226 -81t-76 -209zM564 80q148 12 225 89t77 213q0 116 -62 184t-204 108l-36 10v-604z" />
<glyph unicode="%" horiz-adv-x="1772" d="M120 1044q0 208 68 319t192 111t192 -111t68 -319t-68 -319t-192 -111t-192 111t-68 319zM192 1044q0 -180 48 -273t140 -93t140 93t48 273t-48 273t-140 93t-140 -93t-48 -273zM444 0l810 1448h74l-810 -1448h-74zM1132 404q0 208 68 319t192 111t192 -111t68 -319 t-68 -319t-192 -111t-192 111t-68 319zM1204 404q0 -180 48 -273t140 -93t140 93t48 273t-48 273t-140 93t-140 -93t-48 -273z" />
<glyph unicode="&#x26;" horiz-adv-x="1248" d="M140 300q0 96 40 171t134 153l164 136l-92 114q-82 100 -114 169t-32 143q0 138 87 213t247 75t246 -73t86 -201q0 -92 -54 -177t-184 -191l-96 -78l334 -410q10 16 20 38l162 334h66l-172 -360l-32 -64l212 -260l-52 -44l-196 242q-84 -134 -184 -195t-236 -61 q-168 0 -261 85t-93 241zM210 308q0 -130 75 -201t211 -71q118 0 207 58t169 186l-352 430l-146 -118q-92 -76 -128 -140t-36 -144zM308 1190q0 -62 30 -125t104 -153l88 -108l102 84q114 94 160 161t46 143q0 102 -69 161t-195 59t-196 -59t-70 -163z" />
<glyph unicode="'" horiz-adv-x="372" d="M152 1448h68l-6 -422h-56z" />
<glyph unicode="(" horiz-adv-x="586" d="M136 682q0 252 72 487t200 401l46 -34q-122 -168 -184 -385t-62 -469q0 -250 62 -466t184 -384l-46 -34q-128 154 -200 388t-72 496z" />
<glyph unicode=")" horiz-adv-x="586" d="M132 -168q122 168 184 384t62 466q0 252 -62 469t-184 385l46 34q128 -166 200 -401t72 -487q0 -262 -72 -496t-200 -388z" />
<glyph unicode="*" horiz-adv-x="1064" d="M152 1140l20 64l332 -114l-4 358h64l-4 -358l332 114l20 -64l-338 -106l212 -286l-50 -40l-204 288l-204 -288l-50 40l212 286z" />
<glyph unicode="+" horiz-adv-x="1110" d="M132 696v66h388v422h70v-422h388v-66h-388v-422h-70v422h-388z" />
<glyph unicode="," horiz-adv-x="398" d="M44 -316q74 72 103 141t29 169q0 56 -8 120h74q8 -64 8 -118q0 -118 -39 -199t-131 -153z" />
<glyph unicode="-" horiz-adv-x="778" d="M130 552v64h518v-64h-518z" />
<glyph unicode="." horiz-adv-x="436" d="M148 46q0 34 18 53t52 19t52 -18t18 -52t-19 -54t-51 -20q-34 0 -52 19t-18 53z" />
<glyph unicode="/" horiz-adv-x="844" d="M70 -172l638 1646h68l-640 -1646h-66z" />
<glyph unicode="0" horiz-adv-x="1172" d="M140 724q0 384 111 567t335 183t335 -183t111 -567t-111 -567t-335 -183t-335 183t-111 567zM212 724q0 -352 91 -519t283 -167t283 167t91 519t-91 519t-283 167t-283 -167t-91 -519z" />
<glyph unicode="1" horiz-adv-x="850" d="M104 1300l400 148h62v-1448h-70v1376l-370 -130z" />
<glyph unicode="2" horiz-adv-x="1088" d="M130 1344q74 58 180 94t206 36q174 0 277 -98t103 -264q0 -96 -46 -196t-152 -234l-484 -618h698v-64h-780v64l514 658q100 126 140 212t40 174q0 136 -85 217t-227 81q-92 0 -184 -31t-166 -87z" />
<glyph unicode="3" horiz-adv-x="1070" d="M102 82l32 62q76 -50 166 -77t178 -27q170 0 270 101t100 273q0 166 -95 263t-259 97q-80 0 -142 -18l-36 46l468 582h-660v64h750v-64l-456 -554q52 8 96 8q186 0 296 -113t110 -307q0 -202 -120 -323t-322 -121q-96 0 -200 30t-176 78z" />
<glyph unicode="4" horiz-adv-x="1090" d="M68 340v64l630 1044h94v-1044h190v-64h-190v-340h-68v340h-656zM148 404h576v964z" />
<glyph unicode="5" horiz-adv-x="1036" d="M100 74l32 62q66 -46 150 -71t168 -25q172 0 273 106t101 284q0 174 -94 276t-254 102q-70 0 -143 -20t-129 -54l-46 24l44 690h634v-64h-574l-42 -576q52 30 124 47t144 17q186 0 297 -119t111 -319q0 -210 -121 -335t-325 -125q-92 0 -189 28t-161 72z" />
<glyph unicode="6" horiz-adv-x="1070" d="M108 448q0 132 50 259t166 289l342 478l52 -40l-338 -470q-42 -56 -108 -166q58 32 135 51t151 19q190 0 303 -121t113 -323q0 -206 -117 -328t-313 -122q-132 0 -230 58t-152 166t-54 250zM180 448q0 -188 99 -299t267 -111q164 0 260 104t96 282q0 176 -97 279 t-263 103q-82 0 -162 -24t-142 -66q-28 -54 -43 -124t-15 -144z" />
<glyph unicode="7" horiz-adv-x="918" d="M44 1384v64h798v-64l-566 -1404l-64 24l558 1380h-726z" />
<glyph unicode="8" horiz-adv-x="1110" d="M108 352q0 136 94 243t262 161q-138 38 -215 135t-77 231q0 162 103 257t279 95t280 -95t104 -257q0 -130 -77 -226t-215 -138q168 -50 262 -156t94 -248q0 -174 -122 -277t-326 -103t-325 103t-121 275zM180 352q0 -142 103 -228t271 -86q170 0 273 86t103 228 q0 130 -95 224t-281 150q-184 -54 -279 -149t-95 -225zM242 1118q0 -124 80 -208t236 -122q154 40 232 123t78 205q0 132 -87 213t-227 81q-142 0 -227 -80t-85 -212z" />
<glyph unicode="9" horiz-adv-x="1070" d="M96 1024q0 206 117 328t313 122q132 0 230 -58t152 -166t54 -250q0 -132 -50 -259t-166 -289l-342 -478l-52 40l338 470q42 56 108 166q-58 -32 -135 -51t-151 -19q-190 0 -303 121t-113 323zM168 1024q0 -176 97 -279t263 -103q82 0 162 24t142 66q28 54 43 124t15 144 q0 188 -99 299t-267 111q-164 0 -260 -104t-96 -282z" />
<glyph unicode=":" horiz-adv-x="516" d="M188 46q0 34 18 53t52 19t52 -18t18 -52t-19 -54t-51 -20q-34 0 -52 19t-18 53zM188 806q0 34 18 53t52 19t52 -18t18 -52t-19 -54t-51 -20q-34 0 -52 19t-18 53z" />
<glyph unicode=";" horiz-adv-x="516" d="M98 -316q74 72 103 141t29 169q0 56 -8 120h74q8 -64 8 -118q0 -118 -39 -199t-131 -153zM188 806q0 34 18 53t52 19t52 -18t18 -52t-19 -54t-51 -20q-34 0 -52 19t-18 53z" />
<glyph unicode="&#x3c;" horiz-adv-x="792" d="M120 722l504 598l48 -42l-468 -556l468 -556l-48 -42z" />
<glyph unicode="=" horiz-adv-x="1110" d="M178 464v66h754v-66h-754zM178 914v66h754v-66h-754z" />
<glyph unicode="&#x3e;" horiz-adv-x="792" d="M120 166l468 556l-468 556l48 42l504 -598l-504 -598z" />
<glyph unicode="?" horiz-adv-x="996" d="M130 1356q80 56 180 87t194 31q162 0 252 -89t90 -249q0 -104 -45 -179t-161 -161q-104 -80 -138 -145t-34 -183q0 -84 6 -138h-72q-6 60 -6 136q0 94 16 154t58 112t124 116q104 80 141 140t37 146q0 130 -70 201t-200 71q-166 0 -342 -108zM368 46q0 34 18 53t52 19 t52 -18t18 -52t-19 -54t-51 -20q-34 0 -52 19t-18 53z" />
<glyph unicode="@" horiz-adv-x="1578" d="M160 724q0 226 79 396t223 262t336 92q190 0 333 -85t220 -241t77 -366q0 -186 -75 -294t-205 -108q-58 0 -99 22t-59 58q-58 -88 -190 -88q-122 0 -190 93t-68 257q0 166 75 260t209 94q94 0 188 -64v-444q0 -58 35 -91t97 -33q98 0 155 90t57 248q0 194 -67 335 t-194 216t-299 75q-176 0 -304 -82t-196 -236t-68 -366t71 -366t204 -236t315 -82q164 0 296 68l26 -56q-62 -38 -147 -58t-175 -20q-200 0 -349 92t-230 262t-81 396zM612 722q0 -142 52 -214t154 -72q78 0 128 50v492q-58 34 -126 34q-102 0 -155 -74t-53 -216z" />
<glyph unicode="A" horiz-adv-x="1316" d="M80 0l534 1448h88l534 -1448h-76l-158 430h-690l-158 -430h-74zM336 496h642l-320 876z" />
<glyph unicode="B" horiz-adv-x="1272" d="M212 0v1448h72h406q182 0 280 -95t98 -271q0 -128 -53 -212t-153 -114q140 -16 215 -111t75 -257q0 -186 -101 -287t-289 -101h-512h-38zM284 66h486q148 0 228 83t80 239t-81 239t-235 83h-478v-644zM284 776h406q148 0 227 78t79 224t-81 225t-233 79h-398v-606z" />
<glyph unicode="C" horiz-adv-x="1182" d="M120 702q0 234 73 409t208 269t317 94q88 0 182 -24t174 -68l-28 -58q-164 84 -332 84q-156 0 -274 -86t-182 -244t-64 -368q0 -318 143 -492t403 -174q186 0 316 76l30 -56q-62 -42 -154 -65t-194 -23q-300 0 -459 188t-159 538z" />
<glyph unicode="D" horiz-adv-x="1362" d="M212 0v1448h362q308 0 478 -189t170 -531q0 -346 -173 -537t-487 -191h-350zM284 66h290q280 0 427 168t147 488q0 322 -150 491t-436 169h-278v-1316z" />
<glyph unicode="E" horiz-adv-x="1132" d="M212 0v1448h788v-66h-716v-608h548v-66h-548v-642h740v-66h-812z" />
<glyph unicode="F" horiz-adv-x="1056" d="M212 0v1448h776v-66h-704v-634h582v-66h-582v-682h-72z" />
<glyph unicode="G" horiz-adv-x="1320" d="M140 724q0 358 161 554t453 196q98 0 193 -23t167 -65l-26 -58q-156 78 -336 78q-262 0 -400 -175t-138 -507q0 -334 139 -509t401 -175q164 0 322 64v542h-288v66h360v-642q-82 -46 -186 -71t-208 -25q-292 0 -453 196t-161 554z" />
<glyph unicode="H" horiz-adv-x="1384" d="M212 0v1448h72v-680h816v680h72v-1448h-72v702h-816v-702h-72z" />
<glyph unicode="I" horiz-adv-x="504" d="M216 0v1448h72v-1448h-72z" />
<glyph unicode="J" horiz-adv-x="868" d="M36 60l30 56q112 -76 250 -76q136 0 207 79t71 231v1098h72v-1102q0 -176 -92 -274t-258 -98q-78 0 -152 23t-128 63z" />
<glyph unicode="K" horiz-adv-x="1216" d="M212 0v1448h72v-882l788 882h86l-572 -640l586 -808h-86l-548 754l-254 -284v-470h-72z" />
<glyph unicode="L" horiz-adv-x="1038" d="M212 0v1448h72v-1382h678v-66h-750z" />
<glyph unicode="M" horiz-adv-x="1654" d="M212 0v1448h90l524 -1064l524 1064h92v-1448h-70v1336l-506 -1026h-80l-506 1030v-1340h-68z" />
<glyph unicode="N" horiz-adv-x="1428" d="M212 0v1448h68l868 -1328v1328h68v-1448h-68l-868 1328v-1328h-68z" />
<glyph unicode="O" d="M140 724q0 368 146 559t418 191t418 -191t146 -559t-146 -559t-418 -191t-418 191t-146 559zM214 724q0 -338 124 -511t366 -173t366 173t124 511t-124 511t-366 173t-366 -173t-124 -511z" />
<glyph unicode="P" horiz-adv-x="1174" d="M212 0v1448h72h398q202 0 313 -115t111 -327q0 -214 -112 -331t-318 -117h-392v-558h-72zM284 624h398q170 0 260 97t90 281t-92 282t-264 98h-392v-758z" />
<glyph unicode="Q" d="M140 724q0 368 146 559t418 191t418 -191t146 -559q0 -246 -66 -414t-194 -252l266 -308l-50 -46l-274 320q-110 -50 -246 -50q-272 0 -418 191t-146 559zM214 724q0 -338 124 -511t366 -173t366 173t124 511t-124 511t-366 173t-366 -173t-124 -511z" />
<glyph unicode="R" horiz-adv-x="1246" d="M212 0v1448h72h380q202 0 311 -110t109 -312q0 -182 -91 -291t-261 -131l406 -604h-88l-396 600h-370v-600h-72zM284 666h380q168 0 257 91t89 263q0 176 -91 269t-263 93h-372v-716z" />
<glyph unicode="S" horiz-adv-x="1104" d="M100 88l28 58q192 -104 406 -104q182 0 278 80t96 236q0 124 -68 200t-220 118l-164 46q-172 48 -253 139t-81 237q0 178 112 276t316 98q98 0 203 -23t195 -63l-28 -62q-194 82 -376 82q-172 0 -262 -76t-90 -226q0 -126 69 -199t221 -115l164 -46q174 -48 254 -139 t80 -237q0 -186 -117 -289t-329 -103q-114 0 -229 30t-205 82z" />
<glyph unicode="T" horiz-adv-x="1036" d="M80 1382v66h474h402v-66h-402v-1382h-72v1382h-402z" />
<glyph unicode="U" horiz-adv-x="1352" d="M202 500v948h72v-944q0 -226 104 -345t298 -119t298 119t104 345v944h72v-948q0 -250 -124 -388t-350 -138t-350 138t-124 388z" />
<glyph unicode="V" horiz-adv-x="1244" d="M88 1448h76l458 -1372l458 1372h76l-490 -1448h-88z" />
<glyph unicode="W" horiz-adv-x="1772" d="M92 1448h74l342 -1370l334 1368h88l334 -1368l342 1370h74l-372 -1448h-88l-334 1360l-334 -1360h-88z" />
<glyph unicode="X" horiz-adv-x="1196" d="M82 0l474 736l-460 712h80l424 -658l430 658h80l-472 -714l476 -734h-80l-438 676l-434 -676h-80z" />
<glyph unicode="Y" horiz-adv-x="1156" d="M72 1448h76l430 -836l430 836h76l-470 -912v-536h-72v536z" />
<glyph unicode="Z" horiz-adv-x="1086" d="M108 0v66l774 1316h-750v66h834v-66l-774 -1316h782v-66h-866z" />
<glyph unicode="[" horiz-adv-x="660" d="M212 -174v1716h374v-62h-306v-1592h306v-62h-374z" />
<glyph unicode="\" horiz-adv-x="844" d="M68 1474h68l638 -1646h-66z" />
<glyph unicode="]" horiz-adv-x="660" d="M74 -112h306v1592h-306v62h374v-1716h-374v62z" />
<glyph unicode="^" horiz-adv-x="802" d="M72 1062l286 386h84l288 -386h-80l-248 332l-250 -332h-80z" />
<glyph unicode="_" horiz-adv-x="1162" d="M212 -188h738v-64h-738v64z" />
<glyph unicode="`" horiz-adv-x="1000" d="M292 1556v12h78l216 -326v-12h-62z" />
<glyph unicode="a" horiz-adv-x="1024" d="M98 278q0 186 162 274t504 90v96q0 136 -68 205t-202 69q-132 0 -262 -66l-22 62q62 34 137 52t149 18q158 0 248 -86t90 -240v-752h-68v146q-144 -168 -346 -168q-152 0 -237 79t-85 221zM170 278q0 -110 67 -173t185 -63q96 0 179 43t163 131v366q-304 -2 -449 -76 t-145 -228z" />
<glyph unicode="b" horiz-adv-x="1118" d="M204 0v986v554h70v-642q134 180 332 180q184 0 285 -145t101 -409q0 -262 -101 -406t-287 -144q-100 0 -187 45t-145 127v-146h-68zM274 222q58 -86 146 -134t186 -48q152 0 233 123t81 357q0 240 -83 366t-237 126q-94 0 -173 -45t-153 -141v-604z" />
<glyph unicode="c" horiz-adv-x="926" d="M118 546q0 160 52 280t147 186t221 66q72 0 149 -22t141 -62l-28 -56q-140 76 -264 76q-160 0 -253 -124t-93 -340q0 -248 93 -378t269 -130q140 0 258 74l30 -54q-56 -40 -133 -63t-157 -23q-204 0 -318 150t-114 420z" />
<glyph unicode="d" horiz-adv-x="1118" d="M126 530q0 262 101 406t287 144q100 0 186 -44t144 -124v628h70v-1472v-68h-68v158q-134 -182 -334 -182q-184 0 -285 145t-101 409zM198 534q0 -240 83 -366t237 -126q94 0 173 45t153 141v604q-58 86 -146 134t-186 48q-152 0 -233 -123t-81 -357z" />
<glyph unicode="e" horiz-adv-x="1044" d="M122 526q0 262 108 407t304 145q186 0 291 -133t105 -369q0 -24 -4 -52h-732q0 -232 98 -357t274 -125q160 0 284 90l30 -54q-58 -48 -139 -75t-173 -27q-212 0 -329 144t-117 406zM196 584h664v16q0 194 -88 304t-244 110q-152 0 -237 -110t-95 -320z" />
<glyph unicode="f" horiz-adv-x="634" d="M50 992v60h178v194q0 142 80 222t222 80q44 0 74 -8v-62q-40 6 -74 6q-114 0 -173 -61t-59 -179v-192h268v-60h-268v-992h-70v992h-178z" />
<glyph unicode="g" horiz-adv-x="1122" d="M126 548q0 250 104 390t288 140q100 0 187 -45t145 -127v146h68v-1056q0 -202 -113 -311t-319 -109q-72 0 -142 15t-118 41l22 62q108 -52 244 -52q172 0 264 90t92 260v202q-134 -180 -332 -180q-184 0 -287 141t-103 393zM198 552q0 -232 83 -352t241 -120q94 0 173 45 t153 141v564q-58 86 -146 134t-186 48q-156 0 -237 -117t-81 -343z" />
<glyph unicode="h" horiz-adv-x="1132" d="M204 0v1540h70v-624q152 162 352 162q146 0 229 -86t83 -240v-752h-70v740q0 134 -64 203t-186 69q-92 0 -175 -40t-169 -124v-848h-70z" />
<glyph unicode="i" horiz-adv-x="486" d="M182 1350q0 32 17 50t45 18t45 -17t17 -49t-17 -50t-45 -18t-45 17t-17 49zM208 0v1052h70v-1052h-70z" />
<glyph unicode="j" horiz-adv-x="486" d="M-44 -376q100 32 153 80t76 128t23 214v1006h70v-1006q0 -152 -27 -242t-91 -146t-182 -94zM182 1350q0 32 17 50t45 18t45 -17t17 -49t-17 -50t-45 -18t-45 17t-17 49z" />
<glyph unicode="k" horiz-adv-x="1036" d="M204 0v1540h70v-1108l584 620h84l-432 -456l454 -596h-84l-416 546l-190 -200v-346h-70z" />
<glyph unicode="l" horiz-adv-x="540" d="M200 152v1388h70v-1382q0 -54 25 -80t79 -26q32 0 72 8l10 -58q-48 -12 -94 -12q-80 0 -121 41t-41 121z" />
<glyph unicode="m" horiz-adv-x="1742" d="M204 0v1052h68v-138q154 164 344 164q104 0 175 -48t101 -136q160 184 362 184q138 0 216 -86t78 -240v-752h-70v740q0 134 -59 203t-173 69q-86 0 -169 -42t-171 -130q8 -38 8 -88v-752h-70v740q0 134 -60 203t-176 69q-88 0 -169 -40t-165 -124v-848h-70z" />
<glyph unicode="n" horiz-adv-x="1128" d="M204 0v1052h68v-138q74 80 164 122t188 42q146 0 228 -86t82 -240v-752h-70v740q0 134 -63 203t-185 69q-90 0 -173 -40t-169 -124v-848h-70z" />
<glyph unicode="o" horiz-adv-x="1078" d="M126 526q0 270 107 411t307 141q198 0 305 -141t107 -411t-107 -411t-307 -141q-198 0 -305 141t-107 411zM198 526q0 -240 86 -364t254 -124t255 124t87 364t-86 364t-254 124t-255 -124t-87 -364z" />
<glyph unicode="p" horiz-adv-x="1118" d="M204 -414v1400v66h68v-156q134 182 334 182q184 0 285 -145t101 -409q0 -262 -101 -406t-287 -144q-100 0 -186 44t-144 124v-556h-70zM274 222q58 -86 146 -134t186 -48q152 0 233 123t81 357q0 240 -83 366t-237 126q-94 0 -173 -45t-153 -141v-604z" />
<glyph unicode="q" horiz-adv-x="1118" d="M126 528q0 262 101 406t287 144q100 0 187 -45t145 -127v146h68v-986v-480h-70v568q-134 -180 -332 -180q-184 0 -285 145t-101 409zM198 532q0 -240 83 -366t237 -126q94 0 173 45t153 141v604q-58 86 -146 134t-186 48q-152 0 -233 -123t-81 -357z" />
<glyph unicode="r" horiz-adv-x="764" d="M204 0v1052h68v-170q64 98 136 145t158 47q70 0 142 -26l-20 -64q-72 22 -130 22q-80 0 -149 -49t-135 -151v-806h-70z" />
<glyph unicode="s" horiz-adv-x="886" d="M92 72l26 58q142 -90 312 -90q132 0 201 59t69 173q0 94 -49 145t-151 75l-142 34q-126 30 -185 94t-59 172q0 136 85 210t239 74q164 0 308 -80l-28 -58q-138 74 -286 74q-120 0 -185 -55t-65 -159q0 -82 46 -131t148 -75l142 -34q130 -30 191 -98t61 -182 q0 -144 -89 -223t-251 -79q-92 0 -181 25t-157 71z" />
<glyph unicode="t" horiz-adv-x="704" d="M62 992v60h178v308h70v-308h310v-60h-310v-722q0 -106 48 -161t140 -55q52 0 116 16l14 -60q-62 -22 -136 -22q-118 0 -185 70t-67 196v738h-178z" />
<glyph unicode="u" horiz-adv-x="1112" d="M190 300v752h70v-740q0 -134 61 -203t181 -69q92 0 174 43t162 131v838h70v-1052h-68v146q-148 -172 -346 -172q-144 0 -224 86t-80 240z" />
<glyph unicode="v" horiz-adv-x="1006" d="M96 1052h74l334 -984l332 984h74l-364 -1052h-84z" />
<glyph unicode="w" horiz-adv-x="1526" d="M100 1052h72l276 -986l274 986h84l272 -986l276 986h72l-306 -1052h-84l-272 956l-274 -956h-84z" />
<glyph unicode="x" horiz-adv-x="980" d="M88 0l360 538l-346 514h78l312 -462l318 462h78l-358 -518l362 -534h-78l-326 482l-322 -482h-78z" />
<glyph unicode="y" horiz-adv-x="998" d="M96 -370q132 44 223 132t147 230l-370 1060h74l330 -972l328 972h74l-370 -1068q-54 -158 -159 -265t-253 -153z" />
<glyph unicode="z" horiz-adv-x="896" d="M108 0v60l592 932h-576v60h652v-60l-592 -932h600v-60h-676z" />
<glyph unicode="{" horiz-adv-x="704" d="M72 654v60q110 2 167 53t57 135v264q0 134 28 216t90 129t172 71l16 -66q-92 -22 -143 -61t-72 -106t-21 -183v-264q0 -90 -38 -143t-120 -75q82 -22 120 -75t38 -143v-262q0 -116 21 -184t72 -107t143 -61l-16 -64q-110 24 -172 70t-90 128t-28 218v262q0 84 -57 135 t-167 53z" />
<glyph unicode="|" horiz-adv-x="490" d="M212 -500v2132h66v-2132h-66z" />
<glyph unicode="}" horiz-adv-x="704" d="M102 -148q92 22 143 61t72 107t21 184v262q0 90 38 143t120 75q-82 22 -120 75t-38 143v264q0 116 -21 183t-72 106t-143 61l16 66q110 -24 172 -71t90 -129t28 -216v-264q0 -84 57 -135t167 -53v-60q-110 -2 -167 -53t-57 -135v-262q0 -136 -28 -218t-90 -128t-172 -70z " />
<glyph unicode="~" horiz-adv-x="1110" d="M132 666q124 148 268 148q54 0 89 -17t81 -53q40 -32 70 -48t74 -16q106 0 222 124l42 -42q-124 -148 -268 -148q-54 0 -89 17t-81 53q-40 32 -70 48t-74 16q-106 0 -222 -124z" />
<glyph unicode="&#xa1;" horiz-adv-x="644" d="M252 1004q0 34 19 54t51 20q34 0 52 -19t18 -53t-18 -53t-52 -19q-32 0 -51 19t-19 51zM286 -396l8 1118h60l8 -1118h-76z" />
<glyph unicode="&#xa2;" horiz-adv-x="930" d="M118 564q0 218 94 346t268 150v226h68v-222h4q68 0 137 -20t127 -54l-28 -54q-122 66 -240 66v-886h26q104 0 224 72l30 -52q-60 -40 -130 -62t-134 -22h-16v-222h-68v228q-174 26 -268 157t-94 349zM190 576q0 -192 74 -308t216 -144v874q-142 -22 -216 -129t-74 -293z " />
<glyph unicode="&#xa3;" horiz-adv-x="1044" d="M140 698v62h200q-10 42 -25 81t-31 73q-28 58 -42 104t-14 112q0 166 93 255t263 89q90 0 175 -32t145 -92l-38 -56q-114 114 -282 114q-136 0 -210 -71t-74 -203q0 -50 12 -90t38 -90q24 -54 39 -96t25 -98h360v-62h-354q4 -52 4 -82q0 -344 -194 -550h670v-66h-742v66 l68 88q130 170 130 440q0 60 -6 104h-210z" />
<glyph unicode="&#xa4;" horiz-adv-x="1124" d="M126 72l140 174q-128 132 -128 380t126 378l-138 174l54 44l140 -172q102 68 242 68t242 -68l140 172l54 -44l-138 -174q126 -130 126 -378t-128 -380l140 -174l-54 -44l-140 172q-102 -68 -242 -68t-242 68l-140 -172zM210 626q0 -212 89 -320t263 -108t263 108t89 320 q0 210 -89 318t-263 108t-263 -108t-89 -318z" />
<glyph unicode="&#xa5;" horiz-adv-x="1048" d="M64 1448h76l384 -812l386 812h74l-396 -814h270v-62h-300v-224h300v-62h-300v-286h-72v286h-300v62h300v224h-300v62h270z" />
<glyph unicode="&#xa6;" horiz-adv-x="490" d="M212 396h66v-896h-66v896zM212 738v894h66v-894h-66z" />
<glyph unicode="&#xa7;" horiz-adv-x="1054" d="M156 -330l26 58q166 -88 346 -88q146 0 222 69t76 203q0 112 -56 177t-186 103l-124 36q-152 44 -224 124t-72 204q0 184 140 296q-132 90 -132 272q0 164 101 256t281 92q82 0 164 -19t148 -51l-26 -58q-134 62 -290 62q-152 0 -229 -69t-77 -205q0 -112 57 -178 t185 -104l124 -36q148 -44 218 -123t70 -203q0 -178 -138 -294q138 -92 138 -276q0 -162 -98 -253t-272 -91q-90 0 -188 25t-184 71zM234 562q0 -104 59 -165t193 -101l124 -36q46 -14 94 -34q124 106 124 256q0 104 -57 165t-187 99l-124 36q-42 12 -100 38 q-64 -56 -95 -118t-31 -140z" />
<glyph unicode="&#xa8;" horiz-adv-x="1000" d="M260 1350q0 30 16 48t44 18t44 -17t16 -49q0 -30 -16 -48t-44 -18t-44 17t-16 49zM620 1350q0 30 16 48t44 18t44 -17t16 -49q0 -30 -16 -48t-44 -18t-44 17t-16 49z" />
<glyph unicode="&#xa9;" horiz-adv-x="1628" d="M196 724q0 234 74 403t213 258t331 89t331 -89t213 -258t74 -403t-74 -403t-213 -258t-331 -89t-331 89t-213 258t-74 403zM266 724q0 -322 145 -503t403 -181t403 181t145 503t-145 503t-403 181t-403 -181t-145 -503zM554 726q0 170 72 264t200 94q48 0 96 -14t88 -40 l-28 -56q-86 46 -158 46q-98 0 -148 -73t-50 -213q0 -152 54 -229t160 -77q78 0 154 46l22 -54q-34 -26 -83 -41t-101 -15q-130 0 -204 96t-74 266z" />
<glyph unicode="&#xaa;" horiz-adv-x="996" d="M158 826q0 146 131 212t409 64v90q0 104 -60 157t-178 53q-46 0 -88 -13t-114 -45l-18 52q68 36 121 50t113 14q136 0 213 -67t77 -185v-546q-68 -36 -147 -56t-149 -20q-150 0 -230 62t-80 178zM200 284v60h566v-60h-566zM226 828q0 -88 63 -135t179 -47q124 0 230 50 v348q-242 2 -357 -50t-115 -166z" />
<glyph unicode="&#xab;" horiz-adv-x="1058" d="M102 562l388 458l44 -42l-350 -416l350 -418l-44 -42zM514 562l388 458l44 -42l-350 -416l350 -418l-44 -42z" />
<glyph unicode="&#xac;" horiz-adv-x="1110" d="M160 862v66h790v-66v-372h-70v372h-720z" />
<glyph unicode="&#xad;" horiz-adv-x="778" d="M130 552v64h518v-64h-518z" />
<glyph unicode="&#xae;" horiz-adv-x="1628" d="M196 724q0 234 74 403t213 258t331 89t331 -89t213 -258t74 -403t-74 -403t-213 -258t-331 -89t-331 89t-213 258t-74 403zM266 724q0 -322 145 -503t403 -181t403 181t145 503t-145 503t-403 181t-403 -181t-145 -503zM616 368v712h212q92 0 145 -59t53 -165 q0 -84 -34 -139t-98 -75l154 -274h-82l-146 262h-2h-132v-262h-70zM686 692h142q126 0 126 160q0 164 -136 164h-132v-324z" />
<glyph unicode="&#xaf;" horiz-adv-x="1000" d="M244 1310v62h512v-62h-512z" />
<glyph unicode="&#xb0;" horiz-adv-x="864" d="M128 1166q0 136 86 221t220 85t218 -85t84 -221t-84 -223t-218 -87t-220 87t-86 223zM198 1166q0 -108 66 -176t170 -68q102 0 167 68t65 176q0 106 -65 173t-167 67q-104 0 -170 -67t-66 -173z" />
<glyph unicode="&#xb1;" horiz-adv-x="1110" d="M132 208v66h846v-66h-846zM132 848v66h388v370h70v-370h388v-66h-388v-370h-70v370h-388z" />
<glyph unicode="&#xb2;" horiz-adv-x="714" d="M80 1456q116 98 262 98q110 0 170 -58t60 -164q0 -66 -30 -125t-114 -159l-270 -324h432v-62h-508v62l298 364q76 92 100 139t24 97q0 82 -44 125t-126 43q-120 0 -226 -84z" />
<glyph unicode="&#xb3;" horiz-adv-x="762" d="M80 724l24 56q48 -32 104 -50t110 -18q112 0 170 56t58 164q0 86 -56 132t-160 46q-54 0 -96 -12l-28 38l282 342h-390v62h476v-62l-264 -310q28 4 44 4q124 0 193 -63t69 -175q0 -136 -78 -211t-220 -75t-238 76z" />
<glyph unicode="&#xb4;" horiz-adv-x="1000" d="M422 1230v12l232 326h78v-12l-248 -326h-62z" />
<glyph unicode="&#xb5;" horiz-adv-x="1126" d="M204 -414v1094v372h70v-740q0 -134 61 -203t181 -69q92 0 174 43t162 131v838h70v-1052h-68v146q-148 -172 -346 -172q-162 0 -234 108v-496h-70z" />
<glyph unicode="&#xb6;" horiz-adv-x="1128" d="M80 1064q0 182 121 283t335 101h308h72v-1448h-72v1382h-236v-1382h-72v684h-8q-212 0 -330 101t-118 279z" />
<glyph unicode="&#xb7;" horiz-adv-x="436" d="M148 618q0 34 18 53t52 19t52 -18t18 -52t-19 -54t-51 -20q-34 0 -52 19t-18 53z" />
<glyph unicode="&#xb8;" horiz-adv-x="1000" d="M322 -410l20 50q76 -36 154 -36q134 0 134 106q0 98 -122 98q-52 0 -90 -18l-26 24l94 226l48 -34l-74 -150q32 8 54 8q84 0 131 -40t47 -112q0 -78 -52 -122t-144 -44q-98 0 -174 44z" />
<glyph unicode="&#xb9;" horiz-adv-x="634" d="M84 1442l228 98h58v-878h-68v798l-196 -76z" />
<glyph unicode="&#xba;" horiz-adv-x="1008" d="M166 1024q0 214 88 326t252 112q160 0 248 -112t88 -326q0 -216 -88 -328t-250 -112t-250 112t-88 328zM222 284v60h566v-60h-566zM234 1024q0 -188 68 -285t202 -97t202 97t68 285t-68 284t-200 96q-134 0 -203 -96t-69 -284z" />
<glyph unicode="&#xbb;" horiz-adv-x="1058" d="M112 146l350 418l-350 416l44 42l388 -460l-388 -458zM524 146l350 418l-350 416l44 42l388 -460l-388 -458z" />
<glyph unicode="&#xbc;" horiz-adv-x="1592" d="M84 1350l228 98h58v-878h-68v798l-196 -76zM286 12l876 1456l54 -32l-876 -1456zM912 200v62l382 616h90v-616h116v-62h-116v-200h-68v200h-404zM992 262h324v528z" />
<glyph unicode="&#xbd;" horiz-adv-x="1662" d="M84 1350l228 98h58v-878h-68v798l-196 -76zM286 12l876 1456l54 -32l-876 -1456zM1028 794q116 98 262 98q110 0 170 -58t60 -164q0 -66 -30 -125t-114 -159l-270 -324h432v-62h-508v62l298 364q76 92 100 139t24 97q0 82 -44 125t-126 43q-120 0 -226 -84z" />
<glyph unicode="&#xbe;" horiz-adv-x="1760" d="M80 632l24 56q48 -32 104 -50t110 -18q112 0 170 56t58 164q0 86 -56 132t-160 46q-54 0 -96 -12l-28 38l282 342h-390v62h476v-62l-264 -310q28 4 44 4q124 0 193 -63t69 -175q0 -136 -78 -211t-220 -75t-238 76zM454 12l876 1456l54 -32l-876 -1456zM1080 200v62 l382 616h90v-616h116v-62h-116v-200h-68v200h-404zM1160 262h324v528z" />
<glyph unicode="&#xbf;" horiz-adv-x="896" d="M150 -84q0 104 45 179t161 161q104 80 138 145t34 183q0 84 -6 138h72q6 -60 6 -136q0 -94 -16 -154t-58 -112t-124 -116q-104 -80 -141 -140t-37 -146q0 -130 70 -201t200 -71q166 0 342 108l30 -58q-80 -56 -180 -87t-194 -31q-162 0 -252 89t-90 249zM488 1004 q0 34 19 54t51 20q34 0 52 -19t18 -53t-18 -53t-52 -19q-32 0 -51 19t-19 51z" />
<glyph unicode="&#xc0;" horiz-adv-x="1316" d="M80 0l534 1448h88l534 -1448h-76l-158 430h-690l-158 -430h-74zM336 496h642l-320 876zM352 1838v14h86l314 -276v-14h-70z" />
<glyph unicode="&#xc1;" horiz-adv-x="1316" d="M80 0l534 1448h88l534 -1448h-76l-158 430h-690l-158 -430h-74zM336 496h642l-320 876zM562 1562v14l332 276h86v-14l-348 -276h-70z" />
<glyph unicode="&#xc2;" horiz-adv-x="1316" d="M80 0l534 1448h88l534 -1448h-76l-158 430h-690l-158 -430h-74zM336 496h642l-320 876zM376 1562v14l248 276h68l248 -276v-14h-62l-220 234l-220 -234h-62z" />
<glyph unicode="&#xc3;" horiz-adv-x="1316" d="M80 0l534 1448h88l534 -1448h-76l-158 430h-690l-158 -430h-74zM336 496h642l-320 876zM360 1584q2 112 47 173t121 61q52 0 84 -25t66 -71q28 -40 52 -60t60 -20q100 0 112 172h54q-2 -112 -47 -173t-121 -61q-52 0 -84 25t-66 71q-28 40 -52 60t-60 20 q-100 0 -112 -172h-54z" />
<glyph unicode="&#xc4;" horiz-adv-x="1316" d="M80 0l534 1448h88l534 -1448h-76l-158 430h-690l-158 -430h-74zM336 496h642l-320 876zM414 1690q0 30 16 48t44 18t44 -17t16 -49q0 -30 -16 -48t-44 -18t-44 17t-16 49zM782 1690q0 30 16 48t44 18t44 -17t16 -49q0 -30 -16 -48t-44 -18t-44 17t-16 49z" />
<glyph unicode="&#xc5;" horiz-adv-x="1316" d="M80 0l534 1448h88l534 -1448h-76l-158 430h-690l-158 -430h-74zM336 496h642l-320 876zM468 1724q0 88 50 137t140 49t140 -49t50 -137t-50 -137t-140 -49t-140 49t-50 137zM530 1724q0 -64 33 -98t95 -34t95 34t33 98t-33 98t-95 34t-95 -34t-33 -98z" />
<glyph unicode="&#xc6;" horiz-adv-x="1780" d="M12 0l846 1448h80h710v-66h-688v-608h520v-66h-520v-642h712v-66h-784v414h-556l-242 -414h-78zM372 480h516v882z" />
<glyph unicode="&#xc7;" horiz-adv-x="1182" d="M120 702q0 234 73 409t208 269t317 94q88 0 182 -24t174 -68l-28 -58q-164 84 -332 84q-156 0 -274 -86t-182 -244t-64 -368q0 -318 143 -492t403 -174q186 0 316 76l30 -56q-62 -42 -154 -65t-194 -23h-24l-60 -120q32 8 54 8q84 0 131 -40t47 -112q0 -78 -52 -122 t-144 -44q-98 0 -174 44l20 50q76 -36 154 -36q134 0 134 106q0 98 -122 98q-50 0 -90 -18l-26 24l70 166q-260 26 -398 212t-138 510z" />
<glyph unicode="&#xc8;" horiz-adv-x="1132" d="M212 0v1448h788v-66h-716v-608h548v-66h-548v-642h740v-66h-812zM312 1838v14h86l314 -276v-14h-70z" />
<glyph unicode="&#xc9;" horiz-adv-x="1132" d="M212 0v1448h788v-66h-716v-608h548v-66h-548v-642h740v-66h-812zM522 1562v14l332 276h86v-14l-348 -276h-70z" />
<glyph unicode="&#xca;" horiz-adv-x="1132" d="M212 0v1448h788v-66h-716v-608h548v-66h-548v-642h740v-66h-812zM336 1562v14l248 276h68l248 -276v-14h-62l-220 234l-220 -234h-62z" />
<glyph unicode="&#xcb;" horiz-adv-x="1132" d="M212 0v1448h788v-66h-716v-608h548v-66h-548v-642h740v-66h-812zM374 1690q0 30 16 48t44 18t44 -17t16 -49q0 -30 -16 -48t-44 -18t-44 17t-16 49zM742 1690q0 30 16 48t44 18t44 -17t16 -49q0 -30 -16 -48t-44 -18t-44 17t-16 49z" />
<glyph unicode="&#xcc;" horiz-adv-x="504" d="M-54 1838v14h86l314 -276v-14h-70zM216 0v1448h72v-1448h-72z" />
<glyph unicode="&#xcd;" horiz-adv-x="504" d="M156 1562v14l332 276h86v-14l-348 -276h-70zM216 0v1448h72v-1448h-72z" />
<glyph unicode="&#xce;" horiz-adv-x="504" d="M-30 1562v14l248 276h68l248 -276v-14h-62l-220 234l-220 -234h-62zM216 0v1448h72v-1448h-72z" />
<glyph unicode="&#xcf;" horiz-adv-x="504" d="M8 1690q0 30 16 48t44 18t44 -17t16 -49q0 -30 -16 -48t-44 -18t-44 17t-16 49zM216 0v1448h72v-1448h-72zM376 1690q0 30 16 48t44 18t44 -17t16 -49q0 -30 -16 -48t-44 -18t-44 17t-16 49z" />
<glyph unicode="&#xd0;" horiz-adv-x="1362" d="M76 700v66h136v682h362q308 0 478 -189t170 -531q0 -346 -173 -537t-487 -191h-350v700h-136zM284 66h290q280 0 427 168t147 488q0 322 -150 491t-436 169h-278v-616h434v-66h-434v-634z" />
<glyph unicode="&#xd1;" horiz-adv-x="1428" d="M212 0v1448h68l868 -1328v1328h68v-1448h-68l-868 1328v-1328h-68zM416 1584q2 112 47 173t121 61q52 0 84 -25t66 -71q28 -40 52 -60t60 -20q100 0 112 172h54q-2 -112 -47 -173t-121 -61q-52 0 -84 25t-66 71q-28 40 -52 60t-60 20q-100 0 -112 -172h-54z" />
<glyph unicode="&#xd2;" d="M140 724q0 368 146 559t418 191t418 -191t146 -559t-146 -559t-418 -191t-418 191t-146 559zM214 724q0 -338 124 -511t366 -173t366 173t124 511t-124 511t-366 173t-366 -173t-124 -511zM398 1838v14h86l314 -276v-14h-70z" />
<glyph unicode="&#xd3;" d="M140 724q0 368 146 559t418 191t418 -191t146 -559t-146 -559t-418 -191t-418 191t-146 559zM214 724q0 -338 124 -511t366 -173t366 173t124 511t-124 511t-366 173t-366 -173t-124 -511zM608 1562v14l332 276h86v-14l-348 -276h-70z" />
<glyph unicode="&#xd4;" d="M140 724q0 368 146 559t418 191t418 -191t146 -559t-146 -559t-418 -191t-418 191t-146 559zM214 724q0 -338 124 -511t366 -173t366 173t124 511t-124 511t-366 173t-366 -173t-124 -511zM422 1562v14l248 276h68l248 -276v-14h-62l-220 234l-220 -234h-62z" />
<glyph unicode="&#xd5;" d="M140 724q0 368 146 559t418 191t418 -191t146 -559t-146 -559t-418 -191t-418 191t-146 559zM214 724q0 -338 124 -511t366 -173t366 173t124 511t-124 511t-366 173t-366 -173t-124 -511zM406 1584q2 112 47 173t121 61q52 0 84 -25t66 -71q28 -40 52 -60t60 -20 q100 0 112 172h54q-2 -112 -47 -173t-121 -61q-52 0 -84 25t-66 71q-28 40 -52 60t-60 20q-100 0 -112 -172h-54z" />
<glyph unicode="&#xd6;" d="M140 724q0 368 146 559t418 191t418 -191t146 -559t-146 -559t-418 -191t-418 191t-146 559zM214 724q0 -338 124 -511t366 -173t366 173t124 511t-124 511t-366 173t-366 -173t-124 -511zM460 1690q0 30 16 48t44 18t44 -17t16 -49q0 -30 -16 -48t-44 -18t-44 17t-16 49 zM828 1690q0 30 16 48t44 18t44 -17t16 -49q0 -30 -16 -48t-44 -18t-44 17t-16 49z" />
<glyph unicode="&#xd7;" horiz-adv-x="1130" d="M172 366l346 362l-346 362l48 48l346 -360l344 360l48 -48l-346 -362l346 -362l-48 -48l-344 360l-346 -360z" />
<glyph unicode="&#xd8;" d="M80 -6l174 216q-114 192 -114 514q0 368 146 559t418 191q270 0 414 -184l142 178h68v-14l-174 -216q114 -192 114 -514q0 -368 -146 -559t-418 -191q-270 0 -414 184l-142 -178h-68v14zM212 724q0 -284 90 -456l772 966q-128 176 -370 176t-367 -174t-125 -512zM334 214 q128 -176 370 -176t367 174t125 512q0 286 -90 456z" />
<glyph unicode="&#xd9;" horiz-adv-x="1352" d="M202 500v948h72v-944q0 -226 104 -345t298 -119t298 119t104 345v944h72v-948q0 -250 -124 -388t-350 -138t-350 138t-124 388zM370 1838v14h86l314 -276v-14h-70z" />
<glyph unicode="&#xda;" horiz-adv-x="1352" d="M202 500v948h72v-944q0 -226 104 -345t298 -119t298 119t104 345v944h72v-948q0 -250 -124 -388t-350 -138t-350 138t-124 388zM580 1562v14l332 276h86v-14l-348 -276h-70z" />
<glyph unicode="&#xdb;" horiz-adv-x="1352" d="M202 500v948h72v-944q0 -226 104 -345t298 -119t298 119t104 345v944h72v-948q0 -250 -124 -388t-350 -138t-350 138t-124 388zM394 1562v14l248 276h68l248 -276v-14h-62l-220 234l-220 -234h-62z" />
<glyph unicode="&#xdc;" horiz-adv-x="1352" d="M202 500v948h72v-944q0 -226 104 -345t298 -119t298 119t104 345v944h72v-948q0 -250 -124 -388t-350 -138t-350 138t-124 388zM432 1690q0 30 16 48t44 18t44 -17t16 -49q0 -30 -16 -48t-44 -18t-44 17t-16 49zM800 1690q0 30 16 48t44 18t44 -17t16 -49q0 -30 -16 -48 t-44 -18t-44 17t-16 49z" />
<glyph unicode="&#xdd;" horiz-adv-x="1156" d="M72 1448h76l430 -836l430 836h76l-470 -912v-536h-72v536zM480 1562v14l332 276h86v-14l-348 -276h-70z" />
<glyph unicode="&#xde;" horiz-adv-x="1208" d="M212 0v1448h70v-272h392q202 0 313 -113t111 -321q0 -210 -112 -325t-318 -115h-386v-302h-70zM282 368h392q170 0 260 95t90 275t-92 276t-264 96h-386v-742z" />
<glyph unicode="&#xdf;" horiz-adv-x="1160" d="M204 0v1124q0 204 96 315t274 111q158 0 244 -89t86 -253q0 -140 -65 -239t-195 -155q196 -28 303 -145t107 -301q0 -182 -102 -282t-290 -100q-120 0 -222 34l20 62q94 -32 202 -32q154 0 237 80t83 230q0 182 -119 285t-345 119v60q160 54 238 149t78 235 q0 134 -67 206t-191 72q-146 0 -224 -93t-78 -269v-1124h-70z" />
<glyph unicode="&#xe0;" horiz-adv-x="1024" d="M98 278q0 186 162 274t504 90v96q0 136 -68 205t-202 69q-132 0 -262 -66l-22 62q62 34 137 52t149 18q158 0 248 -86t90 -240v-752h-68v146q-144 -168 -346 -168q-152 0 -237 79t-85 221zM170 278q0 -110 67 -173t185 -63q96 0 179 43t163 131v366q-304 -2 -449 -76 t-145 -228zM280 1556v12h78l216 -326v-12h-62z" />
<glyph unicode="&#xe1;" horiz-adv-x="1024" d="M98 278q0 186 162 274t504 90v96q0 136 -68 205t-202 69q-132 0 -262 -66l-22 62q62 34 137 52t149 18q158 0 248 -86t90 -240v-752h-68v146q-144 -168 -346 -168q-152 0 -237 79t-85 221zM170 278q0 -110 67 -173t185 -63q96 0 179 43t163 131v366q-304 -2 -449 -76 t-145 -228zM410 1230v12l232 326h78v-12l-248 -326h-62z" />
<glyph unicode="&#xe2;" horiz-adv-x="1024" d="M98 278q0 186 162 274t504 90v96q0 136 -68 205t-202 69q-132 0 -262 -66l-22 62q62 34 137 52t149 18q158 0 248 -86t90 -240v-752h-68v146q-144 -168 -346 -168q-152 0 -237 79t-85 221zM170 278q0 -110 67 -173t185 -63q96 0 179 43t163 131v366q-304 -2 -449 -76 t-145 -228zM234 1230v12l218 326h68l218 -326v-12h-62l-190 278l-190 -278h-62z" />
<glyph unicode="&#xe3;" horiz-adv-x="1024" d="M98 278q0 186 162 274t504 90v96q0 136 -68 205t-202 69q-132 0 -262 -66l-22 62q62 34 137 52t149 18q158 0 248 -86t90 -240v-752h-68v146q-144 -168 -346 -168q-152 0 -237 79t-85 221zM170 278q0 -110 67 -173t185 -63q96 0 179 43t163 131v366q-304 -2 -449 -76 t-145 -228zM190 1244q2 112 47 173t121 61q52 0 84 -25t66 -71q28 -40 52 -60t60 -20q100 0 112 172h54q-2 -112 -47 -173t-121 -61q-52 0 -84 25t-66 71q-28 40 -52 60t-60 20q-100 0 -112 -172h-54z" />
<glyph unicode="&#xe4;" horiz-adv-x="1024" d="M98 278q0 186 162 274t504 90v96q0 136 -68 205t-202 69q-132 0 -262 -66l-22 62q62 34 137 52t149 18q158 0 248 -86t90 -240v-752h-68v146q-144 -168 -346 -168q-152 0 -237 79t-85 221zM170 278q0 -110 67 -173t185 -63q96 0 179 43t163 131v366q-304 -2 -449 -76 t-145 -228zM248 1350q0 30 16 48t44 18t44 -17t16 -49q0 -30 -16 -48t-44 -18t-44 17t-16 49zM608 1350q0 30 16 48t44 18t44 -17t16 -49q0 -30 -16 -48t-44 -18t-44 17t-16 49z" />
<glyph unicode="&#xe5;" horiz-adv-x="1024" d="M98 278q0 186 162 274t504 90v96q0 136 -68 205t-202 69q-132 0 -262 -66l-22 62q62 34 137 52t149 18q158 0 248 -86t90 -240v-752h-68v146q-144 -168 -346 -168q-152 0 -237 79t-85 221zM170 278q0 -110 67 -173t185 -63q96 0 179 43t163 131v366q-304 -2 -449 -76 t-145 -228zM298 1394q0 88 50 137t140 49t140 -49t50 -137t-50 -137t-140 -49t-140 49t-50 137zM360 1394q0 -128 128 -128t128 128t-128 128t-128 -128z" />
<glyph unicode="&#xe6;" horiz-adv-x="1640" d="M98 270q0 182 156 269t488 89v110q0 136 -65 205t-193 69q-126 0 -252 -66l-22 62q62 34 134 52t142 18q128 0 209 -62t103 -176q44 114 132 176t210 62q182 0 284 -133t102 -369q0 -24 -4 -52h-712q0 -226 96 -354t266 -128q158 0 274 90l30 -54q-56 -48 -136 -75 t-166 -27q-128 0 -222 57t-146 167q-92 -114 -188 -168t-208 -54q-148 0 -230 77t-82 215zM168 270q0 -108 64 -168t180 -60q104 0 190 50t180 166q-40 114 -40 266v44q-296 -2 -435 -74t-139 -224zM812 584h644v16q0 194 -85 304t-237 110q-146 0 -230 -111t-92 -319z" />
<glyph unicode="&#xe7;" horiz-adv-x="926" d="M118 546q0 160 52 280t147 186t221 66q72 0 149 -22t141 -62l-28 -56q-140 76 -264 76q-160 0 -253 -124t-93 -340q0 -248 93 -378t269 -130q140 0 258 74l30 -54q-56 -40 -133 -63t-157 -23h-16l-60 -120q32 8 54 8q84 0 131 -40t47 -112q0 -78 -52 -122t-144 -44 q-98 0 -174 44l20 50q76 -36 154 -36q134 0 134 106q0 98 -122 98q-52 0 -90 -18l-26 24l70 168q-170 28 -264 174t-94 390z" />
<glyph unicode="&#xe8;" horiz-adv-x="1044" d="M122 526q0 262 108 407t304 145q186 0 291 -133t105 -369q0 -24 -4 -52h-732q0 -232 98 -357t274 -125q160 0 284 90l30 -54q-58 -48 -139 -75t-173 -27q-212 0 -329 144t-117 406zM196 584h664v16q0 194 -88 304t-244 110q-152 0 -237 -110t-95 -320zM324 1556v12h78 l216 -326v-12h-62z" />
<glyph unicode="&#xe9;" horiz-adv-x="1044" d="M122 526q0 262 108 407t304 145q186 0 291 -133t105 -369q0 -24 -4 -52h-732q0 -232 98 -357t274 -125q160 0 284 90l30 -54q-58 -48 -139 -75t-173 -27q-212 0 -329 144t-117 406zM196 584h664v16q0 194 -88 304t-244 110q-152 0 -237 -110t-95 -320zM454 1230v12 l232 326h78v-12l-248 -326h-62z" />
<glyph unicode="&#xea;" horiz-adv-x="1044" d="M122 526q0 262 108 407t304 145q186 0 291 -133t105 -369q0 -24 -4 -52h-732q0 -232 98 -357t274 -125q160 0 284 90l30 -54q-58 -48 -139 -75t-173 -27q-212 0 -329 144t-117 406zM196 584h664v16q0 194 -88 304t-244 110q-152 0 -237 -110t-95 -320zM278 1230v12 l218 326h68l218 -326v-12h-62l-190 278l-190 -278h-62z" />
<glyph unicode="&#xeb;" horiz-adv-x="1044" d="M122 526q0 262 108 407t304 145q186 0 291 -133t105 -369q0 -24 -4 -52h-732q0 -232 98 -357t274 -125q160 0 284 90l30 -54q-58 -48 -139 -75t-173 -27q-212 0 -329 144t-117 406zM196 584h664v16q0 194 -88 304t-244 110q-152 0 -237 -110t-95 -320zM292 1350 q0 30 16 48t44 18t44 -17t16 -49q0 -30 -16 -48t-44 -18t-44 17t-16 49zM652 1350q0 30 16 48t44 18t44 -17t16 -49q0 -30 -16 -48t-44 -18t-44 17t-16 49z" />
<glyph unicode="&#xec;" horiz-adv-x="486" d="M36 1556v12h78l216 -326v-12h-62zM208 0v1052h70v-1052h-70z" />
<glyph unicode="&#xed;" horiz-adv-x="486" d="M166 1230v12l232 326h78v-12l-248 -326h-62zM208 0v1052h70v-1052h-70z" />
<glyph unicode="&#xee;" horiz-adv-x="486" d="M-10 1230v12l218 326h68l218 -326v-12h-62l-190 278l-190 -278h-62zM208 0v1052h70v-1052h-70z" />
<glyph unicode="&#xef;" horiz-adv-x="486" d="M32 1350q0 30 16 48t44 18t44 -17t16 -49q0 -30 -16 -48t-44 -18t-44 17t-16 49zM208 0v1052h70v-1052h-70zM336 1350q0 30 16 48t44 18t44 -17t16 -49q0 -30 -16 -48t-44 -18t-44 17t-16 49z" />
<glyph unicode="&#xf0;" horiz-adv-x="1078" d="M116 506q0 270 104 411t296 141q122 0 214 -59t138 -165q-60 328 -292 508l-268 -178l-30 48l250 164q-112 68 -228 102l-40 12l16 58l40 -12q148 -44 270 -122l180 120l30 -48l-162 -106q162 -126 240 -328t78 -490q0 -290 -107 -439t-313 -149q-200 0 -308 136 t-108 396zM188 506q0 -230 87 -349t257 -119q172 0 260 119t88 349t-92 359t-256 129q-170 0 -257 -124t-87 -364z" />
<glyph unicode="&#xf1;" horiz-adv-x="1128" d="M204 0v1052h68v-138q74 80 164 122t188 42q146 0 228 -86t82 -240v-752h-70v740q0 134 -63 203t-185 69q-90 0 -173 -40t-169 -124v-848h-70zM272 1244q2 112 47 173t121 61q52 0 84 -25t66 -71q28 -40 52 -60t60 -20q100 0 112 172h54q-2 -112 -47 -173t-121 -61 q-52 0 -84 25t-66 71q-28 40 -52 60t-60 20q-100 0 -112 -172h-54z" />
<glyph unicode="&#xf2;" horiz-adv-x="1078" d="M126 526q0 270 107 411t307 141q198 0 305 -141t107 -411t-107 -411t-307 -141q-198 0 -305 141t-107 411zM198 526q0 -240 86 -364t254 -124t255 124t87 364t-86 364t-254 124t-255 -124t-87 -364zM332 1556v12h78l216 -326v-12h-62z" />
<glyph unicode="&#xf3;" horiz-adv-x="1078" d="M126 526q0 270 107 411t307 141q198 0 305 -141t107 -411t-107 -411t-307 -141q-198 0 -305 141t-107 411zM198 526q0 -240 86 -364t254 -124t255 124t87 364t-86 364t-254 124t-255 -124t-87 -364zM462 1230v12l232 326h78v-12l-248 -326h-62z" />
<glyph unicode="&#xf4;" horiz-adv-x="1078" d="M126 526q0 270 107 411t307 141q198 0 305 -141t107 -411t-107 -411t-307 -141q-198 0 -305 141t-107 411zM198 526q0 -240 86 -364t254 -124t255 124t87 364t-86 364t-254 124t-255 -124t-87 -364zM286 1230v12l218 326h68l218 -326v-12h-62l-190 278l-190 -278h-62z " />
<glyph unicode="&#xf5;" horiz-adv-x="1078" d="M126 526q0 270 107 411t307 141q198 0 305 -141t107 -411t-107 -411t-307 -141q-198 0 -305 141t-107 411zM198 526q0 -240 86 -364t254 -124t255 124t87 364t-86 364t-254 124t-255 -124t-87 -364zM242 1244q2 112 47 173t121 61q52 0 84 -25t66 -71q28 -40 52 -60 t60 -20q100 0 112 172h54q-2 -112 -47 -173t-121 -61q-52 0 -84 25t-66 71q-28 40 -52 60t-60 20q-100 0 -112 -172h-54z" />
<glyph unicode="&#xf6;" horiz-adv-x="1078" d="M126 526q0 270 107 411t307 141q198 0 305 -141t107 -411t-107 -411t-307 -141q-198 0 -305 141t-107 411zM198 526q0 -240 86 -364t254 -124t255 124t87 364t-86 364t-254 124t-255 -124t-87 -364zM300 1350q0 30 16 48t44 18t44 -17t16 -49q0 -30 -16 -48t-44 -18 t-44 17t-16 49zM660 1350q0 30 16 48t44 18t44 -17t16 -49q0 -30 -16 -48t-44 -18t-44 17t-16 49z" />
<glyph unicode="&#xf7;" horiz-adv-x="1110" d="M160 696v66h790v-66h-790zM486 390q0 32 19 51t51 19t51 -19t19 -51t-19 -51t-51 -19t-51 19t-19 51zM486 1066q0 32 19 51t51 19t51 -19t19 -51t-19 -51t-51 -19t-51 19t-19 51z" />
<glyph unicode="&#xf8;" horiz-adv-x="1078" d="M66 -8l138 170q-78 136 -78 364q0 270 107 411t307 141q190 0 296 -130l110 140h66v-12l-142 -176q82 -136 82 -374q0 -270 -107 -411t-307 -141q-196 0 -302 138l-104 -132h-66v12zM196 526q0 -190 54 -308l542 678q-84 120 -252 120q-170 0 -257 -124t-87 -366z M280 166q88 -130 258 -130t257 124t87 366q0 196 -58 318z" />
<glyph unicode="&#xf9;" horiz-adv-x="1112" d="M190 300v752h70v-740q0 -134 61 -203t181 -69q92 0 174 43t162 131v838h70v-1052h-68v146q-148 -172 -346 -172q-144 0 -224 86t-80 240zM342 1556v12h78l216 -326v-12h-62z" />
<glyph unicode="&#xfa;" horiz-adv-x="1112" d="M190 300v752h70v-740q0 -134 61 -203t181 -69q92 0 174 43t162 131v838h70v-1052h-68v146q-148 -172 -346 -172q-144 0 -224 86t-80 240zM472 1230v12l232 326h78v-12l-248 -326h-62z" />
<glyph unicode="&#xfb;" horiz-adv-x="1112" d="M190 300v752h70v-740q0 -134 61 -203t181 -69q92 0 174 43t162 131v838h70v-1052h-68v146q-148 -172 -346 -172q-144 0 -224 86t-80 240zM296 1230v12l218 326h68l218 -326v-12h-62l-190 278l-190 -278h-62z" />
<glyph unicode="&#xfc;" horiz-adv-x="1112" d="M190 300v752h70v-740q0 -134 61 -203t181 -69q92 0 174 43t162 131v838h70v-1052h-68v146q-148 -172 -346 -172q-144 0 -224 86t-80 240zM310 1350q0 30 16 48t44 18t44 -17t16 -49q0 -30 -16 -48t-44 -18t-44 17t-16 49zM670 1350q0 30 16 48t44 18t44 -17t16 -49 q0 -30 -16 -48t-44 -18t-44 17t-16 49z" />
<glyph unicode="&#xfd;" horiz-adv-x="998" d="M96 -370q132 44 223 132t147 230l-370 1060h74l330 -972l328 972h74l-370 -1068q-54 -158 -159 -265t-253 -153zM426 1230v12l232 326h78v-12l-248 -326h-62z" />
<glyph unicode="&#xfe;" horiz-adv-x="1118" d="M204 -414v1400v554h70v-642q134 180 332 180q184 0 285 -145t101 -409q0 -262 -101 -406t-287 -144q-100 0 -186 44t-144 124v-556h-70zM274 222q58 -86 146 -134t186 -48q152 0 233 123t81 357q0 240 -83 366t-237 126q-94 0 -173 -45t-153 -141v-604z" />
<glyph unicode="&#xff;" horiz-adv-x="998" d="M96 -370q132 44 223 132t147 230l-370 1060h74l330 -972l328 972h74l-370 -1068q-54 -158 -159 -265t-253 -153zM264 1350q0 30 16 48t44 18t44 -17t16 -49q0 -30 -16 -48t-44 -18t-44 17t-16 49zM624 1350q0 30 16 48t44 18t44 -17t16 -49q0 -30 -16 -48t-44 -18t-44 17 t-16 49z" />
<glyph unicode="&#x152;" horiz-adv-x="1904" d="M140 724q0 354 145 539t419 185h352h716v-66h-688v-608h520v-66h-520v-642h712v-66h-784h-308q-274 0 -419 185t-145 539zM214 724q0 -324 124 -491t366 -167h308v1316h-308q-242 0 -366 -167t-124 -491z" />
<glyph unicode="&#x153;" horiz-adv-x="1750" d="M126 526q0 270 104 411t298 141q136 0 228 -75t134 -221q38 142 130 219t230 77q182 0 284 -133t102 -369q0 -24 -4 -52h-712q0 -236 92 -359t270 -123q158 0 274 90l30 -54q-56 -48 -136 -75t-166 -27q-148 0 -248 77t-146 221q-40 -148 -133 -224t-231 -76 q-192 0 -296 141t-104 411zM198 526q0 -240 83 -364t245 -124t246 124t84 364t-83 364t-245 124t-246 -124t-84 -364zM922 584h644v16q0 194 -85 304t-237 110q-146 0 -230 -111t-92 -319z" />
<glyph unicode="&#x178;" horiz-adv-x="1156" d="M72 1448h76l430 -836l430 836h76l-470 -912v-536h-72v536zM332 1690q0 30 16 48t44 18t44 -17t16 -49q0 -30 -16 -48t-44 -18t-44 17t-16 49zM700 1690q0 30 16 48t44 18t44 -17t16 -49q0 -30 -16 -48t-44 -18t-44 17t-16 49z" />
<glyph unicode="&#x2c6;" horiz-adv-x="1000" d="M248 1230v12l218 326h68l218 -326v-12h-62l-190 278l-190 -278h-62z" />
<glyph unicode="&#x2dc;" horiz-adv-x="1000" d="M202 1244q2 112 47 173t121 61q52 0 84 -25t66 -71q28 -40 52 -60t60 -20q100 0 112 172h54q-2 -112 -47 -173t-121 -61q-52 0 -84 25t-66 71q-28 40 -52 60t-60 20q-100 0 -112 -172h-54z" />
<glyph unicode="&#x2000;" horiz-adv-x="955" />
<glyph unicode="&#x2001;" horiz-adv-x="1910" />
<glyph unicode="&#x2002;" horiz-adv-x="955" />
<glyph unicode="&#x2003;" horiz-adv-x="1910" />
<glyph unicode="&#x2004;" horiz-adv-x="636" />
<glyph unicode="&#x2005;" horiz-adv-x="477" />
<glyph unicode="&#x2006;" horiz-adv-x="318" />
<glyph unicode="&#x2007;" horiz-adv-x="318" />
<glyph unicode="&#x2008;" horiz-adv-x="238" />
<glyph unicode="&#x2009;" horiz-adv-x="382" />
<glyph unicode="&#x200a;" horiz-adv-x="106" />
<glyph unicode="&#x2010;" horiz-adv-x="778" d="M130 552v64h518v-64h-518z" />
<glyph unicode="&#x2011;" horiz-adv-x="778" d="M130 552v64h518v-64h-518z" />
<glyph unicode="&#x2012;" horiz-adv-x="778" d="M130 552v64h518v-64h-518z" />
<glyph unicode="&#x2013;" horiz-adv-x="1180" d="M130 554v62h920v-62h-920z" />
<glyph unicode="&#x2014;" horiz-adv-x="1794" d="M130 554v62h1534v-62h-1534z" />
<glyph unicode="&#x2018;" horiz-adv-x="326" d="M90 1154q0 116 34 192t114 140l34 -38q-64 -62 -90 -127t-26 -165q0 -66 8 -116h-66q-8 50 -8 114z" />
<glyph unicode="&#x2019;" horiz-adv-x="326" d="M54 1092q64 62 90 127t26 165q0 66 -8 116h66q8 -50 8 -114q0 -116 -34 -192t-114 -140z" />
<glyph unicode="&#x201a;" horiz-adv-x="406" d="M94 -242q64 62 90 127t26 165q0 66 -8 116h66q8 -50 8 -114q0 -116 -34 -192t-114 -140z" />
<glyph unicode="&#x201c;" horiz-adv-x="666" d="M90 1154q0 116 34 192t114 140l34 -38q-64 -62 -90 -127t-26 -165q0 -66 8 -116h-66q-8 50 -8 114zM354 1154q0 116 34 192t114 140l34 -38q-64 -62 -90 -127t-26 -165q0 -66 8 -116h-66q-8 50 -8 114z" />
<glyph unicode="&#x201d;" horiz-adv-x="590" d="M54 1092q64 62 90 127t26 165q0 66 -8 116h66q8 -50 8 -114q0 -116 -34 -192t-114 -140zM318 1092q64 62 90 127t26 165q0 66 -8 116h66q8 -50 8 -114q0 -116 -34 -192t-114 -140z" />
<glyph unicode="&#x201e;" horiz-adv-x="710" d="M94 -242q64 62 90 127t26 165q0 66 -8 116h66q8 -50 8 -114q0 -116 -34 -192t-114 -140zM358 -242q64 62 90 127t26 165q0 66 -8 116h66q8 -50 8 -114q0 -116 -34 -192t-114 -140z" />
<glyph unicode="&#x2022;" horiz-adv-x="934" d="M136 694q0 158 87 245t243 87q158 0 245 -87t87 -245q0 -156 -87 -244t-245 -88q-156 0 -243 88t-87 244z" />
<glyph unicode="&#x2026;" horiz-adv-x="1252" d="M148 46q0 34 18 53t52 19t52 -18t18 -52t-19 -54t-51 -20q-34 0 -52 19t-18 53zM556 46q0 34 18 53t52 19t52 -18t18 -52t-19 -54t-51 -20q-34 0 -52 19t-18 53zM964 46q0 34 18 53t52 19t52 -18t18 -52t-19 -54t-51 -20q-34 0 -52 19t-18 53z" />
<glyph unicode="&#x202f;" horiz-adv-x="382" />
<glyph unicode="&#x2039;" horiz-adv-x="646" d="M102 562l388 458l44 -42l-350 -416l350 -418l-44 -42z" />
<glyph unicode="&#x203a;" horiz-adv-x="646" d="M112 146l350 418l-350 416l44 42l388 -460l-388 -458z" />
<glyph unicode="&#x205f;" horiz-adv-x="477" />
<glyph unicode="&#x20ac;" horiz-adv-x="1134" d="M100 536v62h148q-4 80 -4 124q0 68 6 130h-150v62h156q34 270 164 415t340 145q70 0 144 -22t134 -62l-28 -56q-130 76 -248 76q-186 0 -297 -126t-141 -370h478v-62h-486q-4 -84 -4 -130q0 -44 4 -124h486v-62h-480q30 -242 142 -368t300 -126q118 0 244 72l30 -54 q-60 -40 -134 -62t-146 -22q-210 0 -340 145t-164 415h-154z" />
<glyph unicode="&#x2122;" horiz-adv-x="1770" d="M100 1390v58h488v-58h-212v-822h-64v822h-212zM812 568v880h72l302 -602l300 602h72v-880h-64v762l-292 -582h-34l-294 586v-766h-62z" />
<glyph unicode="&#x25fc;" horiz-adv-x="1050" d="M0 0v1050h1050v-1050h-1050z" />
<glyph unicode="&#xfb03;" horiz-adv-x="1754" d="M50 992v60h178v194q0 142 80 222t222 80q44 0 74 -8v-62q-40 6 -74 6q-114 0 -173 -61t-59 -179v-192h268v-60h-268v-992h-70v992h-178zM684 992v60h178v194q0 142 80 222t222 80q44 0 74 -8v-62q-40 6 -74 6q-114 0 -173 -61t-59 -179v-192h268v-60h-268v-992h-70v992 h-178zM1450 1350q0 32 17 50t45 18t45 -17t17 -49t-17 -50t-45 -18t-45 17t-17 49zM1476 0v1052h70v-1052h-70z" />
<glyph unicode="&#xfb04;" horiz-adv-x="1808" d="M50 992v60h178v194q0 142 80 222t222 80q44 0 74 -8v-62q-40 6 -74 6q-114 0 -173 -61t-59 -179v-192h268v-60h-268v-992h-70v992h-178zM684 992v60h178v194q0 142 80 222t222 80q44 0 74 -8v-62q-40 6 -74 6q-114 0 -173 -61t-59 -179v-192h268v-60h-268v-992h-70v992 h-178zM1468 152v1388h70v-1382q0 -54 25 -80t79 -26q32 0 72 8l10 -58q-48 -12 -94 -12q-80 0 -121 41t-41 121z" />
</font>
</defs>
</svg>
